/* XPM */
static char *_bitlove[] = {
/* columns rows colors chars-per-pixel */
"20 20 110 2 ",
"   c #000303",
".  c #000404",
"X  c #001E1E",
"o  c #350404",
"O  c #390303",
"+  c #400303",
"@  c #530303",
"#  c #550303",
"$  c #580303",
"%  c #5C0303",
"&  c #5E0303",
"*  c #610303",
"=  c #620303",
"-  c #640303",
";  c #680303",
":  c #6A0303",
">  c #6D0303",
",  c #6F0303",
"<  c #6A0404",
"1  c #700303",
"2  c #720303",
"3  c #740202",
"4  c #750404",
"5  c #7F0303",
"6  c #790404",
"7  c #800000",
"8  c #820000",
"9  c #810303",
"0  c #870000",
"q  c #870303",
"w  c #860404",
"e  c #880000",
"r  c #8C0303",
"t  c #890505",
"y  c #8E0404",
"u  c #810808",
"i  c #8E0E0E",
"p  c #960303",
"a  c #9D0000",
"s  c #9E0303",
"d  c #A10303",
"f  c #B30303",
"g  c #BC0303",
"h  c #A11313",
"j  c #C20303",
"k  c #C30303",
"l  c #C50000",
"z  c #C60000",
"x  c #C50303",
"c  c #C90303",
"v  c #CB0303",
"b  c #D00303",
"n  c #D20303",
"m  c #D30303",
"M  c #D60303",
"N  c #DA0303",
"B  c #DE0303",
"V  c #E20303",
"C  c #E30303",
"Z  c #E40303",
"A  c #E60303",
"S  c #E80303",
"D  c #E90303",
"F  c #EB0202",
"G  c #EB0303",
"H  c #EE0303",
"J  c #EF0303",
"K  c #F10303",
"L  c #F60000",
"P  c #F50303",
"I  c #F40606",
"U  c #FA0000",
"Y  c #F80303",
"T  c #F90303",
"R  c #FA0303",
"E  c #FB0303",
"W  c #FE0000",
"Q  c red",
"!  c #FF0101",
"~  c #FC0303",
"^  c #FD0303",
"/  c #FF0202",
"(  c #FE0303",
")  c #FF0303",
"_  c #FF0304",
"`  c #F80707",
"'  c #FF0404",
"]  c #FF0606",
"[  c #F90909",
"{  c #FC0908",
"}  c #F31212",
"|  c #FF1212",
" . c #FD1717",
".. c #FF1F1F",
"X. c #FF2525",
"o. c #FC3030",
"O. c #FE3A3A",
"+. c #FF4444",
"@. c #FF5959",
"#. c #FF6363",
"$. c #FF6B6B",
"%. c #FF6F6F",
"&. c #FE8787",
"*. c #FF8787",
"=. c #FF8E8E",
"-. c #FDA2A2",
";. c #FEB4B4",
":. c #FEBABA",
">. c #FFBCBC",
",. c None",
/* pixels */
",.,.,.,.,.,.,.,.,.,.,.,.,.,.,.,.,.,.,.,.",
",.,.,.,.,.X X ,.,.,.,.,.,.      ,.,.,.,.",
",.,.,.,.h z z a ,.,.,.,.w c g d . ,.,.,.",
",.,.,.i L $.%.} t ,.,.4 V ] W K s o ,.,.",
",.,.0 U #.;.-.X.I u % V W ] W ] K p . ,.",
",.7 [ @.:.=.W ..W R R W ] W ] W S n 9 . ",
",.e +.>.*.W W ] ] W W ] W ] W ] J m 0   ",
",.7 o.*.O.W ..W W ] ] W ] W ] W S n 9 . ",
",.y W W  .| W _ ] W ] W ] W ] W J N y . ",
",.2 m { W W W ] W ] W ] W ] ] P B f ; ,.",
",.,.+ R ] ] ] W ] W ] W ] W U S v - ,.,.",
",.,.# S ] W W ] W ] W ] W ] R A j - ,.,.",
",.,.,.$ S W ] W ] W ] W ] R A j % ,.,.,.",
",.,.,.,.: A W ] W ] W ] U S j = ,.,.,.,.",
",.,.,.,.,.3 A ] ] W ] U S j ; ,.,.,.,.,.",
",.,.,.,.,.,.6 A W ] R S x > ,.,.,.,.,.,.",
",.,.,.,.,.,.,.2 S ] S j > ,.,.,.,.,.,.,.",
",.,.,.,.,.,.,.,.@ n z = ,.,.,.,.,.,.,.,.",
",.,.,.,.,.,.,.,.,.+ O ,.,.,.,.,.,.,.,.,.",
",.,.,.,.,.,.,.,.,.,.,.,.,.,.,.,.,.,.,.,."
};
